22900 0 2 2           
30 Autodesk Translation Framework 20 ASM 229.2.0.65535 NT 24 Mon Jul  3 14:23:53 2023 
1 9.999999999999999547e-07 1.000000000000000036e-10 
asmheader $-1 -1 @13 229.2.0.65535 #
body $2 -1 $-1 $3 $-1 $4 #
rgb_color-st-attrib $-1 -1 $-1 $-1 $1 0.627450980392156854 0.627450980392156854 0.627450980392156854 1 #
lump $-1 -1 $-1 $-1 $5 $1 #
transform $-1 -1 1 0 0 0 1 0 0 0 1 0 0 0 1 no_rotate no_reflect no_shear #
shell $-1 -1 $-1 $-1 $-1 $6 $-1 $3 #
face $7 -1 $-1 $8 $9 $5 $-1 $10 forward single #
DXID-attrib $-1 -1 $-1 $-1 $6 @10 ASM ENTITY @1 0 #
face $11 -1 $-1 $12 $13 $5 $-1 $14 reversed single #
loop $-1 -1 $-1 $-1 $15 $6 #
plane-surface $-1 -1 $-1 1.570931747234720177 7.993127916047098047 30.01223114687248739 -9.436895709313820733e-16 1 2.40368205357203985e-16 0 -2.403682053572039948e-15 10 forward_v I I I I #
DXID-attrib $-1 -1 $-1 $-1 $8 @10 ASM ENTITY @1 1 #
face $16 -1 $-1 $17 $18 $5 $-1 $19 forward single #
loop $-1 -1 $-1 $-1 $20 $8 #
plane-surface $-1 -1 $-1 1.570931747234727061 0.6422869149805993105 30.01223114687248739 -9.436895709313820733e-16 1 2.40368205357203985e-16 0 -2.403682053572039948e-15 10 forward_v I I I I #
coedge $-1 -1 $-1 $15 $15 $21 $22 reversed $9 0 $-1 #
DXID-attrib $-1 -1 $-1 $-1 $12 @10 ASM ENTITY @1 2 #
face $23 -1 $-1 $24 $25 $5 $-1 $26 forward single #
loop $-1 -1 $-1 $27 $28 $12 #
cone-surface $-1 -1 $-1 1.127415093847506267 1.040656286098500249 31.41223114687250373 -9.436895709313820733e-16 1 2.40368205357203985e-16 1.056698876683856215e-16 -4.148082741380026609e-16 1.725720227937670215 1 I I 0.8766118054642619839 0.4811982361986448797 1.725720227937670215 forward I I I I #
coedge $-1 -1 $-1 $20 $20 $28 $29 reversed $13 0 $-1 #
coedge $-1 -1 $-1 $21 $21 $15 $22 forward $30 0 $-1 #
edge $-1 -1 $-1 $31 -1.421678390320450877e-31 $31 6.283185307179586232 $15 $32 forward @7 unknown #
DXID-attrib $-1 -1 $-1 $-1 $17 @10 ASM ENTITY @1 3 #
face $33 -1 $-1 $34 $35 $5 $-1 $36 reversed single #
loop $-1 -1 $-1 $37 $38 $17 #
torus-surface $-1 -1 $-1 1.127415093847504712 2.801059765045301742 31.41223114687250373 -9.436895709313820733e-16 1 2.40368205357203985e-16 1.703779511493510146 1.553748306078960306 7.89215488501469952e-32 -2.40368205357203985e-16 1 forward_v I I I I #
loop $-1 -1 $-1 $-1 $39 $12 #
coedge $-1 -1 $-1 $28 $28 $20 $29 forward $18 0 $-1 #
edge $-1 -1 $-1 $40 -1.570796326794896558 $40 4.712388980384689674 $20 $41 forward @7 unknown #
loop $-1 -1 $-1 $-1 $21 $42 #
vertex $-1 -1 $-1 $22 0 $43 #
ellipse-curve $-1 -1 $-1 1.127415093847499827 7.993127916047098047 31.41223114687250373 9.436895709313820733e-16 -1 -2.40368205357203985e-16 1.561424668912878414e-16 -6.129389236608701099e-16 2.549999999999999822 1 I I #
DXID-attrib $-1 -1 $-1 $-1 $24 @10 ASM ENTITY @1 4 #
face $44 -1 $-1 $42 $45 $5 $-1 $46 forward single #
loop $-1 -1 $-1 $47 $48 $24 #
torus-surface $-1 -1 $-1 1.127415093847503602 3.493127916047100712 31.41223114687250373 6.043317765703869586e-16 1 -3.728983580621293682e-15 -0.8397271342855350262 -4.18972713428553778 -3.666914334935616482e-30 3.728983580621293682e-15 1 forward_v I I I I #
loop $-1 -1 $-1 $-1 $49 $17 #
coedge $-1 -1 $-1 $38 $38 $39 $50 forward $25 0 $-1 #
coedge $-1 -1 $-1 $39 $39 $38 $50 reversed $27 0 $-1 #
vertex $-1 -1 $-1 $29 0 $51 #
ellipse-curve $-1 -1 $-1 1.127415093847506711 0.6422869149805987554 31.41223114687250373 -9.436895709313820733e-16 1 2.40368205357203985e-16 1 9.436895709313822705e-16 1.47911419728939188e-31 1 I I #
face $52 -1 $-1 $-1 $53 $5 $-1 $54 forward single #
point $-1 -1 $-1 1.127415093847500049 7.993127916047098047 33.96223114687250444 #
DXID-attrib $-1 -1 $-1 $-1 $34 @10 ASM ENTITY @1 5 #
loop $-1 -1 $-1 $55 $56 $34 #
cone-surface $-1 -1 $-1 1.127415093847501826 5.793127916047100534 31.41223114687250373 9.436895709313820733e-16 -1 -2.40368205357203985e-16 1.761354725472244828e-16 -6.914216811801781134e-16 2.876510560756890378 1 I I 0.2625469308009196756 0.9649192241462583031 2.876510560756890378 forward I I I I #
loop $-1 -1 $-1 $-1 $57 $24 #
coedge $-1 -1 $-1 $48 $48 $56 $58 reversed $35 0 $-1 #
coedge $-1 -1 $-1 $49 $49 $57 $59 reversed $37 0 $-1 #
edge $-1 -1 $-1 $60 -1.570796326794896558 $60 4.712388980384689674 $39 $61 forward @14 tangent_not_g2 #
point $-1 -1 $-1 1.127415093847506711 0.6422869149805987554 32.41223114687250018 #
DXID-attrib $-1 -1 $-1 $-1 $42 @10 ASM ENTITY @1 6 #
loop $-1 -1 $-1 $30 $62 $42 #
cone-surface $-1 -1 $-1 1.127415093847500271 7.493127916047099824 31.41223114687250373 -9.436895709313820733e-16 1 2.40368205357203985e-16 1.561424668912878414e-16 -6.129389236608701099e-16 2.549999999999999822 1 I I 0 1 2.549999999999999822 forward I I I I #
loop $-1 -1 $-1 $-1 $63 $34 #
coedge $-1 -1 $-1 $56 $56 $48 $58 forward $45 0 $-1 #
coedge $-1 -1 $-1 $57 $57 $49 $59 forward $47 0 $-1 #
edge $-1 -1 $-1 $64 -1.570796326794896558 $64 4.712388980384689674 $48 $65 forward @14 tangent_not_g2 #
edge $-1 -1 $-1 $66 -1.570796326794896558 $66 4.712388980384689674 $49 $67 forward @14 tangent_not_g2 #
vertex $-1 -1 $-1 $50 0 $68 #
ellipse-curve $-1 -1 $-1 1.127415093847506045 1.439025657216299603 31.41223114687250373 -9.436895709313820733e-16 1 2.40368205357203985e-16 2.451440455875339985 2.313398791968831457e-15 3.625960382094794142e-31 1 I I #
coedge $-1 -1 $-1 $62 $62 $63 $69 forward $53 0 $-1 #
coedge $-1 -1 $-1 $63 $63 $62 $69 reversed $55 0 $-1 #
vertex $-1 -1 $-1 $58 0 $70 #
ellipse-curve $-1 -1 $-1 1.127415093847503158 4.593127916047102133 31.41223114687250373 -9.436895709313820733e-16 1 2.40368205357203985e-16 3.203021121513789815 3.022657627845502663e-15 4.737634015048837581e-31 1 I I #
vertex $-1 -1 $-1 $59 0 $71 #
ellipse-curve $-1 -1 $-1 1.127415093847505156 2.393127916047099735 31.41223114687250373 -9.436895709313820733e-16 1 2.40368205357203985e-16 3.203021121513789815 3.022657627845502663e-15 4.737634015048837581e-31 1 I I #
point $-1 -1 $-1 1.127415093847506045 1.439025657216299603 33.86367160274784283 #
edge $-1 -1 $-1 $72 -1.570796326794896558 $72 4.712388980384689674 $63 $73 forward @7 unknown #
point $-1 -1 $-1 1.127415093847503158 4.593127916047102133 34.61525226838629976 #
point $-1 -1 $-1 1.127415093847505378 2.393127916047099735 34.61525226838629266 #
vertex $-1 -1 $-1 $69 0 $74 #
ellipse-curve $-1 -1 $-1 1.127415093847500938 6.9931279160471016 31.41223114687250373 -9.436895709313820733e-16 1 2.40368205357203985e-16 2.549999999999999822 2.406408405875024119e-15 3.771741203087949733e-31 1 I I #
point $-1 -1 $-1 1.127415093847500938 6.9931279160471016 33.96223114687250444 #
End-of-ASM-data 